<svg xmlns="http://www.w3.org/2000/svg" xmlns:svg="http://www.w3.org/2000/svg" id="svg5" width="128" height="128" version="1.1" viewBox="0 0 33.867 33.867"><g id="layer1"><path style="fill:none;stroke:#000;stroke-width:2.64583;stroke-linecap:butt;stroke-linejoin:miter;stroke-dasharray:none;stroke-opacity:1" id="path13714" d="M 8.4806714,25.430339 19.730087,12.567572"/><path style="fill:#000004;fill-opacity:1;stroke:#000;stroke-width:1.32292;stroke-linecap:butt;stroke-miterlimit:0;stroke-dasharray:none" id="path13768" d="M 17.875822,8.9801132 15.454141,4.9577694 11.44181,7.4099427 14.518945,3.863814 10.946912,0.80562395 15.270368,2.6363397 17.07506,-1.705899 l -0.405093,4.6775732 4.687395,0.374539 -4.573817,1.0601835 z" transform="matrix(0.63601327,0,0,0.63601327,5.1699357,4.6555798)"/><path style="fill:#000004;fill-opacity:1;stroke:#000;stroke-width:1.32292;stroke-linecap:butt;stroke-miterlimit:0;stroke-dasharray:none" id="path13768-6" d="M 17.875822,8.9801132 15.454141,4.9577694 11.44181,7.4099427 14.518945,3.863814 10.946912,0.80562395 15.270368,2.6363397 17.07506,-1.705899 l -0.405093,4.6775732 4.687395,0.374539 -4.573817,1.0601835 z" transform="matrix(0.63601327,0,0,0.63601327,14.314128,7.4237348)"/><path style="fill:#000004;fill-opacity:1;stroke:#000;stroke-width:1.32292;stroke-linecap:butt;stroke-miterlimit:0;stroke-dasharray:none" id="path13768-6-7" d="M 17.875822,8.9801132 15.454141,4.9577694 11.44181,7.4099427 14.518945,3.863814 10.946912,0.80562395 15.270368,2.6363397 17.07506,-1.705899 l -0.405093,4.6775732 4.687395,0.374539 -4.573817,1.0601835 z" transform="matrix(0.63601327,0,0,0.63601327,14.356264,16.274468)"/></g></svg>