<svg xmlns="http://www.w3.org/2000/svg" xmlns:svg="http://www.w3.org/2000/svg" id="svg5" width="128" height="128" version="1.1" viewBox="0 0 33.867 33.867"><defs id="defs2"><rect id="rect2215" width="45.335" height="34.326" x="6.99" y="90.1"/><rect id="rect2207" width="26.285" height="17.486" x="32.212" y="56.192"/><rect id="rect2149" width="35.299" height="28.367" x="28.349" y="48.824"/></defs><g id="layer1"><path style="fill:none;fill-rule:evenodd;stroke:#000;stroke-width:1.85208333;stroke-linecap:butt;stroke-linejoin:miter;stroke-dasharray:none;stroke-opacity:1" id="path1750" d="m 17.245085,5.3372225 h 2.771025 c 1.351462,0.040334 2.853127,1.9347968 2.853127,3.2434012 V 24.85114 c 0.01977,1.653391 -1.311775,3.130532 -2.869226,3.159013 h -2.731366"/><path style="fill:none;fill-rule:evenodd;stroke:#000;stroke-width:1.85208333;stroke-linecap:butt;stroke-linejoin:miter;stroke-dasharray:none;stroke-opacity:1" id="path1750-0" d="M 28.504778,5.379134 H 25.733753 C 24.38229,5.4194684 22.880626,7.3139308 22.880626,8.6225353 V 24.893051 c -0.01977,1.653391 1.311776,3.130533 2.869227,3.159014 h 2.731366"/><path style="fill:none;fill-rule:evenodd;stroke:#000;stroke-width:1.85208;stroke-linecap:butt;stroke-linejoin:miter;stroke-dasharray:none;stroke-opacity:1" id="path1708" d="M 19.650089,23.927472 H 2.4079522 l 0,-14.4797422 H 19.654001"/><path style="fill:none;fill-rule:evenodd;stroke:#000;stroke-width:1.85208;stroke-linecap:butt;stroke-linejoin:miter;stroke-dasharray:none;stroke-opacity:1" id="path1708-5" d="m 26.209058,23.966792 h 4.670699 l 0,-14.4646401 h -4.67461"/><text id="text2205" transform="scale(0.26458333)" xml:space="preserve" style="font-style:normal;font-variant:normal;font-weight:400;font-stretch:normal;font-size:18.6667px;line-height:125%;font-family:STIXIntegralsUp;-inkscape-font-specification:STIXIntegralsUp;letter-spacing:0;word-spacing:0;white-space:pre;shape-inside:url(#rect2207);fill:#000;fill-opacity:1;stroke:none;stroke-width:1px;stroke-linecap:butt;stroke-linejoin:miter;stroke-opacity:1"><tspan id="tspan1075" x="32.211" y="90.011"><tspan style="font-size:13.3333px" id="tspan1073">a</tspan></tspan></text><text id="text2213" transform="matrix(1.1161158,0,0,1.127573,-2.9451341,-94.982325)" xml:space="preserve" style="font-style:normal;font-variant:normal;font-weight:400;font-stretch:normal;font-size:14px;line-height:125%;font-family:STIXIntegralsUp;-inkscape-font-specification:STIXIntegralsUp;letter-spacing:0;word-spacing:0;white-space:pre;shape-inside:url(#rect2215);fill:#000;fill-opacity:1;stroke:none;stroke-width:1px;stroke-linecap:butt;stroke-linejoin:miter;stroke-opacity:1"><tspan id="tspan1079" x="6.99" y="102.838"><tspan style="font-weight:700;-inkscape-font-specification:'STIXIntegralsUp Bold'" id="tspan1077">a</tspan></tspan></text></g></svg>